<?xml version="1.0" standalone="no"?><!DOCTYPE svg PUBLIC "-//W3C//DTD SVG 1.1//EN" "http://www.w3.org/Graphics/SVG/1.1/DTD/svg11.dtd"><svg t="1498309860134" class="icon" style="" viewBox="0 0 1024 1024" version="1.1" xmlns="http://www.w3.org/2000/svg" p-id="7544" xmlns:xlink="http://www.w3.org/1999/xlink" width="64" height="64"><defs><style type="text/css"></style></defs><path d="M511 930.486c-87.972 0-171.79-27.522-242.388-79.59-69.174-51.018-119.762-120.97-146.294-202.298-4.624-14.176 3.12-29.416 17.294-34.042 14.18-4.626 29.418 3.12 34.042 17.294 47.734 146.324 183.304 244.634 337.344 244.634 118.92 0 229.354-59.158 295.412-158.25 8.27-12.408 25.036-15.764 37.442-7.488 12.408 8.27 15.76 25.034 7.488 37.442C775.246 862.338 648.016 930.486 511 930.486z" p-id="7545" fill="#a0a0a0"></path><path d="M848.304 413.984c-10.912 0-21.186-6.664-25.266-17.476C771.234 259.21 637.796 166.962 491 166.962c-121.614 0-233.406 61.24-299.048 163.818-8.04 12.56-24.738 16.226-37.296 8.188-12.56-8.038-16.226-24.734-8.188-37.294C222.084 183.508 350.882 112.962 491 112.962c84.722 0 166 25.692 235.046 74.298 67.484 47.508 118.496 113.272 147.516 190.182 5.264 13.952-1.78 29.53-15.73 34.794C854.696 413.422 851.472 413.982 848.304 413.984z" p-id="7546" fill="#a0a0a0"></path><path d="M268.436 347.398 108.876 430.96 96.074 253.204 167.166 321.186Z" p-id="7547" fill="#a0a0a0"></path><path d="M729.098 702.288 893.674 629.106 895.078 807.318 828.484 734.926Z" p-id="7548" fill="#a0a0a0"></path></svg>