<?xml version="1.0" standalone="no"?><!DOCTYPE svg PUBLIC "-//W3C//DTD SVG 1.1//EN" "http://www.w3.org/Graphics/SVG/1.1/DTD/svg11.dtd"><svg t="1498967995609" class="icon" style="" viewBox="0 0 1024 1024" version="1.1" xmlns="http://www.w3.org/2000/svg" p-id="3941" xmlns:xlink="http://www.w3.org/1999/xlink" width="200" height="200"><defs><style type="text/css"></style></defs><path d="M586.589812 387.691833c0-82.389452-66.790172-149.180648-149.179624-149.180648s-149.180648 66.791196-149.180648 149.180648 66.791196 149.179624 149.180648 149.179624 149.179624-66.790172 149.179624-149.179624zM437.410188 512.008186c-68.657706 0-124.316354-55.659671-124.316354-124.316353 0-68.657706 55.658647-124.316354 124.316354-124.316354 68.658729 0 124.316354 55.658647 124.316353 124.316354 0.001023 68.656683-55.657624 124.316354-124.316353 124.316353z m283.937794-65.440431c38.151925-21.212114 63.971987-61.924351 63.971987-108.673072 0-68.627007-55.634088-124.261095-124.262118-124.261095-31.94762 0-61.075007 12.060687-83.090417 31.870872l16.685008 18.539238c17.622356-15.870456 40.945551-25.532513 66.529229-25.532513 54.926984 0 99.453083 44.527123 99.453083 99.454107 0 54.92596-44.526099 99.453083-99.453083 99.453082v24.864294c87.677898 0 160.201655 64.837704 172.267458 149.179625H625.107057c-48.979528-46.236044-115.02371-74.589812-187.695846-74.589813-151.049205 0-273.497001 122.44882-273.497001 273.497001H710.905142c0-66.118883-23.462365-126.756939-62.514799-174.042894h211.695447c0.001023-88.952938-58.301847-164.264181-138.737808-189.758832z m-36.538171 338.936409H190.011588c12.475126-125.641535 118.474298-223.769436 247.3986-223.769436 128.923278 0 234.923474 98.127901 247.399623 223.769436z" p-id="3942"></path></svg>