<?xml version="1.0" standalone="no"?><!DOCTYPE svg PUBLIC "-//W3C//DTD SVG 1.1//EN" "http://www.w3.org/Graphics/SVG/1.1/DTD/svg11.dtd"><svg t="1498968042743" class="icon" style="" viewBox="0 0 1036 1024" version="1.1" xmlns="http://www.w3.org/2000/svg" p-id="4050" xmlns:xlink="http://www.w3.org/1999/xlink" width="202.34375" height="200"><defs><style type="text/css"></style></defs><path d="M1024 889.6s-6.4 0 0 0c0-153.6-89.6-288-217.6-345.6v-6.4c57.6-44.8 96-121.6 96-198.4 0-134.4-102.4-243.2-236.8-256-25.6 6.4-44.8 19.2-44.8 44.8v6.4c0 19.2 19.2 38.4 38.4 38.4 6.4 0 12.8 0 19.2-6.4l6.4 6.4c70.4 19.2 128 83.2 128 166.4 0 64-32 115.2-83.2 147.2l-6.4 6.4c-19.2 6.4-25.6 19.2-32 32l-6.4 6.4 6.4 6.4V556.8c0 32 25.6 57.6 57.6 57.6h12.8c6.4 6.4 12.8 12.8 12.8 19.2 96 44.8 166.4 147.2 166.4 262.4v6.4c0 25.6 19.2 44.8 44.8 44.8s38.4-25.6 38.4-57.6z m-256 0c0-153.6-96-288-224-345.6 57.6-44.8 96-121.6 96-204.8 0-140.8-115.2-256-256-256s-256 115.2-256 256c0 83.2 38.4 153.6 96 204.8-128 57.6-217.6 185.6-224 332.8v32c6.4 19.2 19.2 32 38.4 32 25.6 0 44.8-19.2 44.8-44.8 0-160 128-294.4 281.6-300.8h25.6c153.6 6.4 281.6 134.4 281.6 294.4v6.4c0 25.6 19.2 44.8 44.8 44.8s44.8-19.2 44.8-44.8l6.4-6.4zM390.4 512C294.4 512 224 435.2 224 339.2s76.8-172.8 166.4-172.8 166.4 76.8 166.4 172.8S480 512 390.4 512z" p-id="4051"></path></svg>