<?xml version="1.0" standalone="no"?><!DOCTYPE svg PUBLIC "-//W3C//DTD SVG 1.1//EN" "http://www.w3.org/Graphics/SVG/1.1/DTD/svg11.dtd"><svg class="icon" width="64px" height="64.00px" viewBox="0 0 1024 1024" version="1.1" xmlns="http://www.w3.org/2000/svg"><path fill="#e39687" d="M774.144 1002.974c-8.738 0-18.569-7.646-22.938-10.923l-0.546-0.546-89.020-106.496-0.546-0.546c-8.192-14.199-8.192-34.953 6.554-44.783 4.915-4.915 11.469-7.646 18.569-7.646 9.83 0 19.115 5.461 24.030 13.653l64.444 79.189 144.179-150.187c6.007-6.007 13.653-9.284 21.299-9.284s14.746 3.277 19.661 9.284c6.554 5.461 10.377 13.107 10.377 21.299 0.546 8.192-2.731 16.384-8.738 22.391l-166.025 173.124c-2.731 2.731-12.015 11.469-21.299 11.469zM100.215 915.593c-37.137 0-46.967-34.953-46.967-52.975v-12.015c18.569-151.825 113.596-279.62 250.129-338.603-67.721-50.244-107.588-131.072-107.588-218.999 0-150.187 117.419-271.974 261.052-271.974s261.052 122.334 261.052 271.974c0 88.474-40.414 169.847-108.681 220.092 158.925 81.374 179.132 155.648 179.678 158.925v2.185c0 14.746-11.469 31.13-30.037 31.13-8.192 0-19.661-3.277-26.761-17.476-48.606-67.721-117.419-115.234-193.877-133.803h-0.546c-1.092-0.546-27.307-8.738-27.307-34.953 0-24.576 22.391-33.314 26.761-34.953 72.090-32.222 120.149-109.773 120.149-192.785 0-115.78-90.112-209.715-200.977-209.715s-199.885 93.389-199.885 209.169c0 81.92 46.967 157.833 120.149 192.785 12.015 3.277 31.13 14.199 31.13 34.953 0 21.299-20.207 32.222-32.222 35.499h-0.546c-198.246 37.137-250.129 249.037-259.413 299.281h446.737c12.015 0 30.037 8.192 30.037 31.13s-18.022 31.13-30.037 31.13h-462.029z" /></svg>