<?xml version="1.0" standalone="no"?><!DOCTYPE svg PUBLIC "-//W3C//DTD SVG 1.1//EN" "http://www.w3.org/Graphics/SVG/1.1/DTD/svg11.dtd"><svg t="1498386941836" class="icon" style="" viewBox="0 0 1025 1024" version="1.1" xmlns="http://www.w3.org/2000/svg" p-id="3900" xmlns:xlink="http://www.w3.org/1999/xlink" width="64.0625" height="64"><defs><style type="text/css"></style></defs><path d="M858.1 627" p-id="3901"></path><path d="M221.2 149.1c26.1-48.6 66-81.9 118.1-101.2 43.6-16.2 88.9-20 135-16.7C509.5 33.8 543.1 42 574.5 58c48.8 24.9 82.5 63.1 102.3 113.2 16.8 42.5 21.8 86.8 16.8 131.9-7.9 72.1-26.8 141.5-58.8 207-19 38.9-43.5 74-78 101.6-29.2 23.4-62.2 37.5-100.4 39.5C393.3 654.3 343.8 628 303 583c-32.5-35.8-54.3-77.8-71-122.5l0 0c-18.8-50.3-32.1-101.9-38.4-155.2-1.2-10.4-1.4-21-1.8-26.9C192.2 230.1 200.3 188.1 221.2 149.1z" p-id="3902"></path><path d="M0.8 993.9c-0.1-1.8-0.3-3.3-0.3-4.9 0-27-0.1-54 0-81 0.1-21.7 2.5-43 10.6-63.4 10.4-26.2 29.3-44.9 54-58.1 32.5-17.5 67.4-29 102.9-38.9 47.5-13.3 95.9-21.2 144.9-26.5 61-6.5 118.7-11.7 180-9.7 29.8 1 63.1 7 93 8.9 1.4 0.1 2.8 0.5 3.5 0.6-1.4 125.8 55.3 216.2 168.6 272.9L0.8 993.8z" p-id="3903"></path><path d="M1024.5 752.7 901.6 752.7 901.6 873.4 819.7 873.4 819.7 752.7 696.8 752.7 696.8 672.6 819.7 672.6 819.7 551.6 901.6 551.6 901.6 672.6 1024.5 672.6Z" p-id="3904"></path></svg>