<?xml version="1.0" standalone="no"?><!DOCTYPE svg PUBLIC "-//W3C//DTD SVG 1.1//EN" "http://www.w3.org/Graphics/SVG/1.1/DTD/svg11.dtd"><svg t="1498968628472" class="icon" style="" viewBox="0 0 1024 1024" version="1.1" xmlns="http://www.w3.org/2000/svg" p-id="5286" xmlns:xlink="http://www.w3.org/1999/xlink" width="200" height="200"><defs><style type="text/css"></style></defs><path d="M742.39037 872.507052C732.980703 881.916719 718.025272 881.861888 708.767223 872.603839L565.458115 732.385741C556.207048 723.134673 556.2434 708.074096 565.554902 698.762589L605.034543 661.504098C614.444209 652.094431 629.399645 652.149262 638.657694 661.407311L728.38723 745.162245 941.491782 518.726065C950.503205 509.714646 965.609342 509.705435 974.920848 519.016941L1010.521307 555.157727C1019.930973 564.567394 1019.963043 579.43593 1010.812183 588.586789L742.39037 872.507052ZM139.636364 837.818182C139.636364 837.818182 140.67734 809.16877 143.721266 797.603202 149.029303 777.43502 158.415813 757.175198 172.872966 738.239427 185.195819 722.099135 200.763606 707.561416 220.104544 694.974115 248.816792 676.287856 341.214879 631.093997 332.078782 636.072844 390.138425 604.432417 412.212292 561.463464 388.559923 497.514808 384.958515 487.777718 363.507092 431.45088 358.209139 416.597046 342.817466 373.44352 333.272371 336.639997 324.783144 283.296562 312.248334 204.532056 369.770254 139.636364 466.26749 139.636364 571.044971 139.636364 629.910798 197.576815 619.986167 285.384254 613.807085 340.053228 604.889014 371.081051 587.2357 407.451797 587.680116 406.536181 552.225592 474.807566 539.29385 503.391646L624.108763 541.762825C635.7853 515.953236 670.418623 449.263153 670.983024 448.10033 693.277635 402.167206 705.13172 360.924384 712.48809 295.839491 728.985321 149.881457 623.998925 46.545455 466.26749 46.545455 313.335459 46.545455 211.18413 161.791627 232.849136 297.927204 242.258212 357.050657 253.244797 399.412207 270.528472 447.870323 276.225846 463.844013 297.956064 520.902907 301.249676 529.807811 307.065226 545.531252 308.380666 542.970615 287.532892 554.331909 282.015993 557.338419 275.594213 560.553095 265.97112 565.171293 270.601051 562.949353 245.145458 575.097814 238.070951 578.558101 212.184458 591.219735 190.997437 602.847939 169.326586 616.951575 140.984774 635.396752 117.593202 657.240581 98.881863 681.748419 60.377931 732.180312 47.027784 782.904948 46.549412 819.586942L46.545455 926.650154 587.235705 926.650126 512 837.818182 139.636364 837.818182Z" p-id="5287" fill="#b1b1b1"></path></svg>