<?xml version="1.0" standalone="no"?><!DOCTYPE svg PUBLIC "-//W3C//DTD SVG 1.1//EN" "http://www.w3.org/Graphics/SVG/1.1/DTD/svg11.dtd"><svg t="1498996248390" class="icon" style="" viewBox="0 0 1024 1024" version="1.1" xmlns="http://www.w3.org/2000/svg" p-id="8764" xmlns:xlink="http://www.w3.org/1999/xlink" width="64" height="64"><defs><style type="text/css"></style></defs><path d="M655.36 723.627c-23.893-6.827-143.36-54.613-153.6-61.44-13.653-6.827-37.547-27.307-40.96-37.547-3.413-6.827-10.24-51.2 13.653-71.68 6.827-6.827 13.653-13.653 23.893-20.48 6.827-6.827 13.653-6.827 27.307-58.027 3.413 0 6.827-6.827 10.24-10.24 3.413-6.827 13.653-51.2 17.067-61.44 3.413-17.067-10.24-23.893-10.24-23.893v-61.44c-3.413-54.613-23.893-129.707-68.267-139.947-10.24-3.413-30.72-3.413-30.72-3.413-17.067-20.48-34.133-37.547-68.267-37.547-64.853 0-95.573 20.48-112.64 37.547-81.92 78.507-64.853 180.907-64.853 197.973-3.413 3.413-13.653 6.827-6.827 27.307 3.413 17.067 10.24 51.2 13.653 58.027 3.413 3.413 6.827 10.24 10.24 13.653 13.653 44.373 20.48 54.613 23.893 61.44 6.827 6.827 17.067 13.653 23.893 20.48 17.067 17.067 13.653 61.44 10.24 71.68-3.413 10.24-20.48 27.307-37.547 37.547-13.653 10.24-136.533 51.2-160.427 58.027-20.48 6.827-23.893 13.653-27.307 34.133-3.413 20.48-13.653 64.853-13.653 88.747 0 20.48 6.827 30.72 30.72 30.72h610.987c27.307 0 30.72-17.067 30.72-30.72s-10.24-64.853-13.653-81.92c-13.653-23.893-23.893-34.133-37.547-37.547zM969.387 767.997c-3.413-17.067-23.893-40.96-58.027-54.613-34.133-13.653-122.88-30.72-129.707-40.96-3.413-3.413-13.653-30.72-6.827-68.267h98.987c6.827-10.24-27.307-30.72-20.48-40.96 20.48-40.96 23.893-92.16 20.48-122.88-3.413-44.373-20.48-85.333-30.72-102.4-40.96-78.507-122.88-92.16-143.36-92.16-64.853-3.413-98.987 30.72-109.227 40.96 6.827 13.653 13.653 95.573 10.24 143.36-6.827 58.027-54.613 122.88-61.44 126.293 3.413 6.827 3.413 3.413 6.827 10.24 10.24 10.24-27.307 37.547-20.48 40.96h98.987c3.413 17.067 3.413 34.133 0 44.373 17.067 6.827 75.093 27.307 88.747 37.547 37.547 27.307 47.787 143.36 47.787 160.427 0 10.24-3.413 23.893-13.653 27.307h208.213c23.893 0 27.307-17.067 27.307-30.72s-10.24-61.44-13.653-78.507z" fill="#e78170" p-id="8765"></path></svg>