<?xml version="1.0" standalone="no"?><!DOCTYPE svg PUBLIC "-//W3C//DTD SVG 1.1//EN" "http://www.w3.org/Graphics/SVG/1.1/DTD/svg11.dtd"><svg t="1498996313267" class="icon" style="" viewBox="0 0 1024 1024" version="1.1" xmlns="http://www.w3.org/2000/svg" p-id="9260" xmlns:xlink="http://www.w3.org/1999/xlink" width="64" height="64"><defs><style type="text/css"></style></defs><path d="M513.344 31.104c-266.133333 0-481.856 215.722667-481.856 481.834667 0 266.133333 215.722667 481.856 481.856 481.856 266.112 0 481.856-215.722667 481.856-481.856 0-266.112-215.744-481.834667-481.856-481.834667z m113.237333 207.296a293.952 293.952 0 0 1 68.117334 40.384c8.661333 6.826667 17.066667 14.208 25.088 22.186667a295.125333 295.125333 0 0 1 55.850666 77.717333l-149.056 148.458667c1.493333-8.917333 0-288.746667 0-288.746667z m-148.821333-21.013333c10.986667-1.28 22.122667-1.984 33.450667-1.984a295.381333 295.381333 0 0 1 94.72 15.658666v209.962667c-5.376-7.317333-205.013333-204.181333-205.013334-204.181333a296.021333 296.021333 0 0 1 76.842667-19.456z m-199.082667 110.314666c6.848-8.576 14.186667-16.981333 22.250667-24.981333 18.666667-18.602667 39.36-34.133333 61.312-46.677333 5.44-3.157333 11.050667-6.144 16.746667-8.96l149.013333 148.48c-9.002667-1.429333-289.877333 0.042667-289.877333 0.042666a291.882667 291.882667 0 0 1 40.554666-67.904z m-61.824 216.597334a285.824 285.824 0 0 1-1.984-33.322667 291.84 291.84 0 0 1 15.68-94.336h210.752c-7.381333 5.248-204.885333 204.181333-204.885333 204.181333a287.786667 287.786667 0 0 1-19.562667-76.522666z m109.802667 198.250666a290.496 290.496 0 0 1-71.978667-83.285333c-3.136-5.504-6.186667-11.008-8.96-16.682667l148.970667-148.501333c-1.450667 8.981333 0.064 288.810667 0.064 288.810667a292.906667 292.906667 0 0 1-68.096-40.341334z m217.109333 62.741334c-10.944 1.301333-22.101333 2.005333-33.386666 2.005333-26.517333 0-52.138667-3.562667-76.522667-10.197333a297.024 297.024 0 0 1-18.176-5.482667v-210.005333c5.312 7.424 204.928 204.245333 204.885333 204.245333a292.010667 292.010667 0 0 1-76.8 19.434667z m197.696-109.141334c-6.890667 8.618667-14.293333 16.981333-22.250666 24.938667a293.504 293.504 0 0 1-61.248 46.698667c-5.504 3.136-11.114667 6.122667-16.768 8.981333l-149.034667-148.48c9.002667 1.493333 289.813333-0.042667 289.856-0.042667a293.653333 293.653333 0 0 1-40.554667 67.904z m55.04-108.096c-1.664 6.101333-3.477333 12.181333-5.482666 18.112H580.266667c7.402667-5.290667 204.928-204.202667 204.928-204.202666 9.941333 24.512 16.490667 50.261333 19.498666 76.565333 1.301333 10.944 2.005333 22.058667 2.005334 33.344 0 26.410667-3.584 51.882667-10.197334 76.181333z" fill="#4BCB63" p-id="9261"></path></svg>