<?xml version="1.0" standalone="no"?><!DOCTYPE svg PUBLIC "-//W3C//DTD SVG 1.1//EN" "http://www.w3.org/Graphics/SVG/1.1/DTD/svg11.dtd"><svg t="1498996391205" class="icon" style="" viewBox="0 0 1163 1024" version="1.1" xmlns="http://www.w3.org/2000/svg" p-id="11181" xmlns:xlink="http://www.w3.org/1999/xlink" width="72.6875" height="64"><defs><style type="text/css"></style></defs><path d="M814.618065 0c-23.272727 0-41.890909 9.309091-46.545454 32.581818-4.654545 18.618182 13.963636 41.890909 32.581818 46.545455 74.472727 13.963636 223.418182 37.236364 260.654546 251.345454 4.654545 23.272727 23.272727 46.545455 46.545454 37.236364 18.618182-4.654545 37.236364-13.963636 27.927273-65.163636C1098.545338 93.090909 930.981702 9.309091 814.618065 0M884.436247 316.509091c-9.309091-37.236364-46.545455-79.127273-88.436363-83.781818-13.963636 0-23.272727 4.654545-27.927273 18.618182-4.654545 13.963636 4.654545 27.927273 18.618182 32.581818 27.927273 4.654545 41.890909 27.927273 46.545454 46.545454 0 0 4.654545 13.963636 18.618182 18.618182 13.963636 4.654545 37.236364-4.654545 32.581818-32.581818" fill="#E79017" p-id="11182"></path><path d="M1000.799884 335.127273c-13.963636-97.745455-83.781818-176.872727-186.181819-195.490909-32.581818-4.654545-46.545455 18.618182-46.545454 37.236363s13.963636 32.581818 37.236364 37.236364c65.163636 18.618182 107.054545 46.545455 121.018181 121.018182 4.654545 23.272727 23.272727 37.236364 37.236364 37.236363 23.272727 0 37.236364-13.963636 37.236364-37.236363z" fill="#E79017" p-id="11183"></path><path d="M782.036247 493.381818h-13.963636s0-4.654545 4.654545-13.963636c13.963636-27.927273 32.581818-88.436364-9.309091-121.018182-23.272727-23.272727-134.981818-37.236364-246.690909 37.236364-4.654545 4.654545-13.963636 13.963636-18.618181 9.309091-4.654545 0-4.654545-9.309091-4.654546-18.618182-4.654545-60.509091 41.890909-214.109091-79.127273-200.145455-130.327273 23.272727-307.2 223.418182-353.745454 321.163637-181.527273 344.436364 79.127273 484.072727 330.472727 493.381818 274.618182 9.309091 549.236364-144.290909 586.472727-349.090909 23.272727-134.981818-139.636364-162.909091-195.490909-158.254546m32.581818 214.109091c-13.963636 134.981818-209.454545 242.036364-423.563636 237.381818-195.490909-4.654545-330.472727-107.054545-307.2-223.418182s181.527273-214.109091 372.363636-223.418181c204.8-13.963636 372.363636 79.127273 358.4 209.454545" fill="#D7282A" p-id="11184"></path><path d="M423.636247 605.090909c-93.090909 4.654545-176.872727 79.127273-190.836363 162.909091-9.309091 88.436364 51.2 162.909091 148.945454 162.909091s190.836364-74.472727 200.145455-172.218182c9.309091-88.436364-60.509091-158.254545-158.254546-153.6z m-74.472727 256c-32.581818 0-51.2-23.272727-46.545455-55.854545 0-32.581818 27.927273-60.509091 60.509091-60.509091 32.581818 0 51.2 23.272727 51.2 55.854545-4.654545 32.581818-37.236364 60.509091-65.163636 60.509091z m74.472727-93.090909c-9.309091 0-18.618182-9.309091-13.963636-18.618182 0-9.309091 9.309091-18.618182 18.618182-18.618182s18.618182 9.309091 13.963636 18.618182c0 13.963636-9.309091 18.618182-18.618182 18.618182z" fill="#050001" p-id="11185"></path></svg>