<?xml version="1.0" standalone="no"?><!DOCTYPE svg PUBLIC "-//W3C//DTD SVG 1.1//EN" "http://www.w3.org/Graphics/SVG/1.1/DTD/svg11.dtd"><svg t="1498996424742" class="icon" style="" viewBox="0 0 1024 1024" version="1.1" xmlns="http://www.w3.org/2000/svg" p-id="11781" xmlns:xlink="http://www.w3.org/1999/xlink" width="64" height="64"><defs><style type="text/css"></style></defs><path d="M573.66392 247.133563c5.196349-19.606547 20.405749-24.413016 24.007787-8.006348l3.999081 20.810978c3.998057 18.003026 12.004405 8.395204 12.004405-14.408151-0.404206-17.201777-2.009773-22.406313-9.607822-28.404933-11.607362-9.607822-25.208125-9.607822-33.616632-0.404206-9.600659 10.401908-15.59928 29.206182-12.792351 40.012296C560.851103 269.935895 568.452221 265.936815 573.66392 247.133563L573.66392 247.133563 573.66392 247.133563zM952.166463 621.624746c-9.594519-39.600927-40.799218-104.027262-65.6103-137.232524-17.207917-22.810518-17.60496-22.810518-13.605879-44.018539 4.800329-27.206642-1.597381-59.617819-17.20894-84.421738-9.593496-14.805194-12.799514-26.00835-16.003486-53.618175C824.933687 171.894975 733.30685 62.259996 605.668845 21.447475 568.452221 9.457396 490.434334 6.656607 449.619766 15.865339 307.580772 47.468105 208.348724 164.308183 196.747501 312.352961c-1.198292 18.409279-3.999081 33.212426-6.005784 33.212426-6.000668 0-19.208481 25.604144-19.208481 37.204343 0 6.005784-2.793626 15.606443-6.40385 20.812001-4.793166 7.600095-5.998621 16.804734-4.793166 38.811957l1.601474 29.206182-25.207102 33.212426c-61.624523 80.823793-85.633333 166.849052-67.226101 238.869343 8.403391 31.609928 13.601786 36.814464 30.008454 30.014594 12.805654-5.205559 46.017056-39.619346 53.214992-55.222719 4.403287-9.602705 10.807137-12.004405 10.807137-4.001127 0 9.596566 24.405853 56.81089 42.415019 82.425268 9.998725 14.010085 17.605983 26.007327 16.798595 26.411533-0.397043 0.794086-8.397251 5.201465-17.201777 9.607822-32.810267 16.805758-47.217395 41.210587-47.613414 82.818217-0.405229 14.398942 1.998517 23.604604 7.600095 31.611975 4.402263 6.402827 10.003841 14.798031 12.408611 18.797112 13.996782 24.00881 39.607066 36.012192 93.220125 44.011376 40.012296 5.602601 67.62212 3.206018 146.449443-12.400425 79.626525-15.607466 112.832811-15.607466 195.658192 0.800225 117.235075 23.207561 188.460256 15.59928 226.075968-24.00881 28.007891-30.4188 36.410258-55.221696 26.797319-78.8263-3.199878-7.203052-4.79419-14.418384-3.595898-15.205307 0.801249-1.202385-1.198292-7.597025-4.41045-14.404058-7.593955-14.010085-26.797319-29.611411-47.607274-38.416961l-14.414291-6.004761 21.214161-31.206746c11.600199-17.21508 26.015513-44.011376 32.41834-60.013839l11.20418-28.817326 14.804171 22.808472c15.59928 24.01188 37.204343 46.417169 48.804543 50.414203 16.804734 6.009877 30.81482-28.805046 34.006512-83.219353C960.171788 662.84045 958.980659 648.440485 952.166463 621.624746L952.166463 621.624746 952.166463 621.624746zM551.255561 188.31597c15.196097-31.609928 46.807049-44.018539 70.820975-28.411073 17.599843 11.606339 30.405497 39.210024 32.80208 69.224618 6.411013 92.830245-65.609277 136.438439-104.026238 62.816674C537.648658 267.539312 538.046724 214.728526 551.255561 188.31597L551.255561 188.31597 551.255561 188.31597zM398.807497 166.703743c13.204743-11.195993 40.410362-12.401448 55.215556-2.800789 18.009166 12.003382 30.80868 39.211047 32.81436 71.224158 1.992377 36.013215-4.007267 58.817594-21.60404 78.026074-16.005532 18.010189-32.419364 22.803355-50.819432 14.807241-28.810163-12.409634-44.018539-41.61684-44.018539-86.429465C370.396423 207.921493 379.997082 182.708252 398.807497 166.703743L398.807497 166.703743 398.807497 166.703743zM447.222159 351.562984c43.212174-8.402367 135.63719-5.204535 179.648566 5.601578 52.015677 13.20986 108.839871 42.416042 108.839871 56.419987 0 7.601118-35.218106 30.007431-56.824193 36.007075-12.797467 3.999081-12.400425 2.799766 4.000104-19.201318 14.414291-19.208481 8.40953-19.606547-16.003486-1.205455-88.827071 66.823941-196.062398 68.424392-282.482653 3.603061-12.005428-8.806573-22.413476-15.20019-23.207561-14.004969-1.198292 0.801249 1.99954 8.402367 6.807033 16.407692 4.800329 7.998161 7.602142 15.59928 6.39464 16.804734-2.800789 2.799766-36.006052-11.607362-50.810223-22.407336-6.807033-4.800329-12.003382-12.002358-12.003382-16.407692C311.579853 396.375609 384.407532 363.567389 447.222159 351.562984L447.222159 351.562984 447.222159 351.562984zM308.374858 969.765795c-66.020646 0-116.830869-18.413372-129.637546-46.429449-4.403287-9.195429-3.594875-13.196557 5.602601-30.006408 9.606799-18.401092 10.004865-19.599384 2.799766-21.591761-10.004865-3.212158-5.601578-10.807137 12.407588-24.00881 16.401552-11.218506 32.80822-12.812817 40.408315-3.609201 3.206018 3.594875 12.005428 10.799974 19.606547 15.59928 7.603165 5.198395 21.209044 16.010649 30.41266 24.405853 8.80555 8.804527 29.205159 26.00835 44.812625 38.821167 20.803815 16.798595 28.809139 25.999141 28.809139 32.405037C363.596554 967.361025 355.590206 969.765795 308.374858 969.765795L308.374858 969.765795 308.374858 969.765795zM818.941206 843.318918c22.406313 11.601222 31.205723 30.4188 13.997805 30.4188-5.596462 0-5.596462 1.198292 0.800225 7.995091 3.999081 4.406356 8.004301 16.410762 9.202593 27.209712 1.596358 18.011212 0.802272 20.010753-12.805654 32.014134-22.406313 19.59836-52.015677 26.805506-109.634979 26.000164-36.800138 0-51.209312-1.594311-55.214533-5.997598-8.402367-7.998161 1.205455-19.6045 29.610388-35.610032 35.602869-20.399609 49.612954-31.204699 54.42147-40.408315 2.403746-4.807493 9.998725-10.004865 16.797571-12.003382 8.004301-1.99954 16.406668-8.806573 23.611767-19.211551C802.129308 835.710636 803.731806 835.31257 818.941206 843.318918L818.941206 843.318918 818.941206 843.318918zM805.730323 711.660342c-32.005948 123.638925-142.03797 210.864522-274.086425 216.866213-92.824105 4.40738-168.848593-24.007787-232.069473-86.817298-48.009434-48.02069-75.621305-104.83465-82.024132-170.467463-2.800789-30.79947 3.197832-82.817194 12.402471-104.82544l5.601578-13.201673 16.804734 10.408047c9.607822 5.615904 19.207457 11.614525 22.008246 13.20986 3.206018 1.99954 2.397606 16.004509-3.203972 54.816466-9.599635 64.419172-7.602142 89.220021 9.203616 108.040668 15.2094 17.599843 41.61377 27.199479 74.827219 27.597545 55.215556 0.801249 60.418045-6.402827 60.418045-84.024695l0-50.811246 33.206286 3.595898c120.837112 12.806677 237.272985-11.593036 322.509275-68.424392 12.003382-7.998161 23.201421-12.799514 24.795732-11.202133C810.935881 571.216683 816.535413 668.451238 805.730323 711.660342L805.730323 711.660342 805.730323 711.660342zM436.417069 275.538497c12.408611 8.402367 18.010189 7.609305 29.207206-4.000104 7.608282-7.196912 10.004865-14.003945 10.004865-28.007891 0-30.014594-25.207102-48.415686-41.608653-30.411637C418.407903 230.327806 419.612335 263.542278 436.417069 275.538497L436.417069 275.538497 436.417069 275.538497zM457.220884 226.725768c2.40477 0.801249 4.402263 5.602601 4.402263 11.203156 0 11.203156-11.600199 15.202237-15.59928 5.198395C443.216939 235.525178 450.421015 224.322022 457.220884 226.725768L457.220884 226.725768 457.220884 226.725768zM457.220884 226.725768" p-id="11782" fill="#d81e06"></path></svg>