<?xml version="1.0" standalone="no"?><!DOCTYPE svg PUBLIC "-//W3C//DTD SVG 1.1//EN" "http://www.w3.org/Graphics/SVG/1.1/DTD/svg11.dtd"><svg t="1498996562202" class="icon" style="" viewBox="0 0 1024 1024" version="1.1" xmlns="http://www.w3.org/2000/svg" p-id="14397" xmlns:xlink="http://www.w3.org/1999/xlink" width="64" height="64"><defs><style type="text/css"></style></defs><path d="M450.857966 440.60495 746.77049 240.152569l10.788717-10.788717c-13.743002-13.214976-28.476565-25.379017-44.146453-36.33965l-7.92653 11.868305c-4.00522-2.805906-8.098445-5.496178-12.219299-8.126075l7.922437-11.840676c-16.020882-10.264784-32.773428-19.414165-50.345642-27.164686l-16.724917 40.379663c-4.500501-1.958608-9.033747-3.745301-13.626345-5.5279l16.696264-40.34487c-17.631566-6.930853-35.843346-12.630668-54.67525-16.784268l-2.805906 14.122649c-4.764514-1.079588-9.617032-1.870604-14.414291-2.717901l2.805906-14.090926c-18.563798-3.333932-37.566594-5.26491-56.981782-5.644557l0 43.770899c-2.453888-0.060375-4.88424-0.38374-7.339152-0.38374-2.452865 0-4.880147 0.323365-7.339152 0.38374l0-43.770899c-19.382443 0.379647-38.385239 2.310625-56.95313 5.644557l2.805906 14.093996c-4.824889 0.844228-9.645684 1.635243-14.414291 2.718925l-2.805906-14.122649c-18.826787 4.149507-37.074384 9.853415-54.702879 16.780175l16.724917 40.348963c-4.592598 1.782599-9.154497 3.50994-13.627369 5.496178l-16.692171-40.348963c-17.572214 7.718799-34.352389 16.873296-50.345642 27.133987l7.922437 11.839653c-4.120854 2.662643-8.274454 5.29254-12.279674 8.131191l-7.922437-11.844769c-15.673981 10.937097-30.379914 23.128767-44.150546 36.343743l30.818913 30.843472c-3.541663 3.361561-6.991228 6.815219-10.380418 10.380418l-30.81482-30.842449c-13.216 13.770632-25.40767 28.476565-36.343743 44.145429l11.871375 7.951089c-2.837628 3.977591-5.496178 8.070816-8.130168 12.195763l-11.839653-7.92653c-10.293437 16.024975-19.442818 32.80515-27.161616 50.377364l40.348963 16.693194c-1.991354 4.504594-3.746324 9.06547-5.500271 13.653975l-40.34487-16.723893c-6.931876 17.627473-12.631692 35.875069-16.785292 54.702879l14.122649 2.805906c-1.082658 4.768607-1.870604 9.589402-2.745531 14.414291l-14.09502-2.805906c-3.301186 18.567891-5.232165 37.569664-5.611811 56.95313l43.738154 0c-0.056282 2.486634-0.379647 4.88424-0.379647 7.339152 0 2.453888 0.323365 4.881171 0.379647 7.339152l-43.738154 0c0.379647 19.382443 2.310625 38.386262 5.611811 56.925501l14.09502-2.778276c0.874927 4.824889 1.662873 9.677407 2.745531 14.414291l-14.122649 2.805906c4.1536 18.830881 9.853415 37.074384 16.785292 54.702879l40.34487-16.724917c1.753947 4.590552 3.508917 9.151427 5.500271 13.654998l-40.348963 16.693194c7.718799 17.572214 16.868179 34.356482 27.129894 50.347688l11.871375-7.92039c2.63399 4.149507 5.29254 8.242731 8.130168 12.247952l-11.871375 7.92653c10.964726 15.669888 23.127743 30.407544 36.343743 44.146453l10.784624-10.788717L450.857966 440.60495z" p-id="14398" fill="#555555"></path><path d="M535.149744 524.895705 472.407772 462.153732 340.693938 656.610562Z" p-id="14399" fill="#555555"></path><path d="M836.190055 36.269042 187.971627 36.269042c-81.029478 0-148.551314 67.520813-148.551314 148.550291l0 648.219451c0 81.029478 67.521836 148.551314 148.551314 148.551314l648.218428 0c81.029478 0 148.551314-67.521836 148.551314-148.551314L984.741369 184.820356C984.740346 103.790878 917.21851 36.269042 836.190055 36.269042zM503.77927 905.186987c-226.997967 0-411.660734-184.662767-411.660734-411.661757S276.781302 81.864496 503.77927 81.864496s411.660734 184.662767 411.660734 411.660734S730.777237 905.186987 503.77927 905.186987z" p-id="14400" fill="#555555"></path><path d="M767.939625 239.744269l-10.788717 10.788717L556.69955 546.44551 260.78805 746.897891l-10.788717 10.788717c13.770632 13.214976 28.509311 25.4046 44.150546 36.33965l7.922437-11.812023c4.00522 2.805906 8.126075 5.437849 12.252045 8.070816l-7.92346 11.872399c16.021905 10.260691 32.774451 19.415189 50.374294 27.129894l16.692171-40.34487c4.476965 1.958608 9.03784 3.739161 13.627369 5.496178l-16.724917 40.348963c17.628496 6.927783 35.876092 12.631692 54.702879 16.778128l2.805906-14.08888c4.768607 1.050935 9.589402 1.870604 14.414291 2.717901l-2.805906 14.060227c18.567891 3.335978 37.570687 5.265934 56.95313 5.646604l0-43.738154c2.459005 0.054235 4.885264 0.379647 7.339152 0.379647 2.453888 0 4.881171-0.325411 7.339152-0.379647l0 43.738154c19.382443-0.379647 38.390355-2.310625 56.95313-5.646604l-2.805906-14.060227c4.824889-0.87902 9.649777-1.666966 14.414291-2.717901l2.805906 14.08888c18.830881-4.14746 37.042661-9.851369 54.67525-16.778128l-16.696264-40.348963c4.592598-1.757017 9.153474-3.50994 13.598716-5.496178l16.720823 40.34487c17.603937-7.718799 34.385135-16.868179 50.406017-27.161616l-7.922437-11.839653c4.120854-2.662643 8.214079-5.29254 12.219299-8.126075l7.92653 11.868305c15.669888-10.960633 30.375821-23.124673 44.1178-36.310997l-30.81482-30.847565c3.565199-3.390213 7.014764-6.841825 10.377348-10.379395l30.847565 30.816866c13.214976-13.738909 25.379017-28.476565 36.33965-44.150546l-11.839653-7.922437c2.774183-4.009314 5.464455-8.130168 8.098445-12.254092l11.868305 7.924483c10.264784-15.993253 19.415189-32.773428 27.133987-50.374294l-40.348963-16.696264c1.990331-4.474918 3.717671-9.061376 5.500271-13.650905l40.376593 16.720823c6.89913-17.656125 12.599969-35.871999 16.752546-54.730509l-14.093996-2.780323c1.050935-4.762467 1.870604-9.583263 2.690272-14.439874l14.122649 2.809999c3.305279-18.539238 5.232165-37.515429 5.611811-56.897871l-43.738154 0c0.027629-2.453888 0.352017-4.88424 0.352017-7.339152 0-2.454912-0.320295-4.852518-0.352017-7.339152l43.738154 0c-0.379647-19.383466-2.306532-38.386262-5.611811-56.95313l-14.122649 2.805906c-0.847298-4.824889-1.635243-9.645684-2.717901-14.414291l14.122649-2.805906c-4.149507-18.827811-9.853415-37.075407-16.780175-54.702879l-40.348963 16.723893c-1.782599-4.588505-3.50994-9.149381-5.496178-13.594623l40.34487-16.724917c-7.714705-17.599843-16.868179-34.380018-27.129894-50.373271l-11.872399 7.922437c-2.629897-4.124947-5.320169-8.214079-8.098445-12.223393l11.872399-7.922437C793.346271 268.25358 781.154601 253.514901 767.939625 239.744269z" p-id="14401" fill="#555555"></path></svg>