<?xml version="1.0" standalone="no"?><!DOCTYPE svg PUBLIC "-//W3C//DTD SVG 1.1//EN" "http://www.w3.org/Graphics/SVG/1.1/DTD/svg11.dtd"><svg t="1498447095298" class="icon" style="" viewBox="0 0 1024 1024" version="1.1" xmlns="http://www.w3.org/2000/svg" p-id="4467" xmlns:xlink="http://www.w3.org/1999/xlink" width="200" height="200"><defs><style type="text/css"></style></defs><path d="M44.521739 438.53913c-24.486957 0-44.521739 20.034783-44.521739 44.52174v57.87826c0 24.486957 20.034783 44.521739 44.521739 44.52174h934.956522c24.486957 0 44.521739-20.034783 44.521739-44.52174v-57.87826c0-24.486957-20.034783-44.521739-44.521739-44.52174H44.521739z" fill="#ffffff" p-id="4468"></path><path d="M587.686957 44.521739c0-24.486957-20.034783-44.521739-44.52174-44.521739h-57.87826c-24.486957 0-44.521739 20.034783-44.52174 44.521739v934.956522c0 24.486957 20.034783 44.521739 44.52174 44.521739h57.87826c24.486957 0 44.521739-20.034783 44.52174-44.521739V44.521739z" fill="#ffffff" p-id="4469"></path></svg>