<?xml version="1.0" standalone="no"?><!DOCTYPE svg PUBLIC "-//W3C//DTD SVG 1.1//EN" "http://www.w3.org/Graphics/SVG/1.1/DTD/svg11.dtd"><svg t="1498953107585" class="icon" style="" viewBox="0 0 1024 1024" version="1.1" xmlns="http://www.w3.org/2000/svg" p-id="4627" xmlns:xlink="http://www.w3.org/1999/xlink" width="64" height="64"><defs><style type="text/css"></style></defs><path d="M511.965867 946.722133L137.147733 617.5744C93.730133 576.477867-6.519467 467.626667 0.341333 343.790933 0.273067 276.992 27.4432 219.2384 88.405333 158.242133c61.883733-54.237867 126.805333-80.9984 194.4576-80.9984 101.819733 0 186.299733 59.050667 229.0688 95.880534 42.769067-36.795733 127.2832-95.880533 229.0688-95.880534 67.652267 0 132.573867 26.760533 192.887467 79.496534 62.532267 62.498133 89.736533 120.251733 89.736533 188.791466 6.792533 122.0608-93.422933 230.912-136.874666 272.008534l-2.935467 2.730666-371.848533 326.4512zM282.862933 141.243733c-52.4288 0-101.717333 20.821333-150.766933 63.6928-47.104 47.240533-67.857067 89.7024-67.857067 140.629334-5.597867 101.5808 88.029867 198.280533 116.8384 225.518933l2.6624 2.525867 328.192 288.017066 329.762134-289.416533c29.934933-28.3648 123.528533-125.098667 118.033066-224.836267-0.068267-52.701867-20.821333-95.197867-69.461333-143.872-47.479467-41.437867-96.802133-62.2592-149.230933-62.2592-100.625067 0-183.466667 75.025067-206.472534 98.065067l-22.6304 22.6304-22.6304-22.6304c-22.971733-23.04-105.7792-98.065067-206.4384-98.065067z" fill="#888888" p-id="4628"></path></svg>