<?xml version="1.0" standalone="no"?><!DOCTYPE svg PUBLIC "-//W3C//DTD SVG 1.1//EN" "http://www.w3.org/Graphics/SVG/1.1/DTD/svg11.dtd"><svg class="icon" width="64px" height="64.00px" viewBox="0 0 1024 1024" version="1.1" xmlns="http://www.w3.org/2000/svg"><path fill="#e39687" d="M528.848 426.56c45.872-42.336 74.784-102.768 74.784-170.096 0-127.936-103.728-231.648-231.664-231.648-127.936 0-231.648 103.712-231.648 231.648 0 65.84 27.6 125.136 71.696 167.312l-4.032 2.88c0 0-137.872 52.048-149.984 242.672C47.184 839.6 223.472 932.816 223.472 932.816l137.392-1.024 131.184-271.68 133.264-134.288C625.312 525.808 591.552 466.784 528.848 426.56zM495.168 725.184l135.312 137.392-225.184 78.496L495.168 725.184zM527.168 686.976l245.856-245.856 135.328 136.352L665.616 824.352 527.168 686.976zM808.16 406l39.248-38.224c0 0 72.432-44.432 124.816 18.768 56.432 68.144 13.632 116.544 13.632 116.544l-39.28 40.32L808.16 406z" /></svg>