<?xml version="1.0" standalone="no"?><!DOCTYPE svg PUBLIC "-//W3C//DTD SVG 1.1//EN" "http://www.w3.org/Graphics/SVG/1.1/DTD/svg11.dtd"><svg t="1498953177212" class="icon" style="" viewBox="0 0 1024 1024" version="1.1" xmlns="http://www.w3.org/2000/svg" p-id="5352" xmlns:xlink="http://www.w3.org/1999/xlink" width="64" height="64"><defs><style type="text/css"></style></defs><path d="M352.660992 822.678832C479.658408 694.679599 492.818125 694.679599 505.60229 694.679599l387.628388 0c19.523659 0 35.413558-15.638165 35.413558-34.872229L928.644235 199.778023c0-19.22997-15.889899-34.872229-35.413558-34.872229L131.175575 164.905794c-19.523659 0-35.409464 15.642259-35.409464 34.872229L95.766111 659.789974c0 19.235087 15.885805 34.872229 35.409464 34.872229l165.68146 0C320.225255 694.679599 335.555405 701.388395 352.660992 822.678832M329.972247 889.802602c0 0-18.509563-164.274414-33.115212-164.274414L131.175575 725.528188c-36.582173 0-66.259076-29.445636-66.259076-65.739237L64.916499 199.778023c0-36.288484 29.67588-65.73412 66.259076-65.73412l762.067382 0c36.586267 0 66.26317 29.445636 66.26317 65.73412L959.506127 659.789974c0 36.292578-29.676903 65.739237-66.26317 65.739237L505.618663 725.529211C489.86998 725.529211 329.972247 889.802602 329.972247 889.802602L329.972247 889.802602 329.972247 889.802602 329.972247 889.802602zM329.972247 889.802602" p-id="5353"></path></svg>