<?xml version="1.0" standalone="no"?><!DOCTYPE svg PUBLIC "-//W3C//DTD SVG 1.1//EN" "http://www.w3.org/Graphics/SVG/1.1/DTD/svg11.dtd"><svg t="1498951967173" class="icon" style="" viewBox="0 0 1024 1024" version="1.1" xmlns="http://www.w3.org/2000/svg" p-id="3957" xmlns:xlink="http://www.w3.org/1999/xlink" width="64" height="64"><defs><style type="text/css"></style></defs><path d="M511.213079 784.978663c-176.555782 0-287.168821-72.323044-348.857689-134.011912-68.069169-65.942743-93.595491-128.816597-95.72294-133.070472s-2.127449-10.6352 0-17.016525c2.127449-2.127449 27.653771-71.140105 95.72294-139.21132 61.688868-57.433969 172.301907-129.757013 348.857689-129.757013 176.556805 0 287.169845 72.323044 348.858712 134.012935 68.070192 65.942743 93.596514 131.885486 95.72294 136.139361 2.127449 4.253875 2.127449 10.6352 0 17.016525-2.126426 2.127449-27.652748 68.071216-95.72294 136.141408C798.383947 712.655618 687.769884 784.978663 511.213079 784.978663M107.048871 511.514954c19.143974 42.54387 123.376712 230.919839 404.164208 230.919839 280.78852 0 385.021258-191.445881 404.164208-233.989751-19.142951-42.54387-123.375689-233.989751-404.164208-233.989751C232.552009 274.456314 126.192845 468.972107 107.048871 511.514954" p-id="3958"></path><path d="M511.214102 678.620522c-93.596514 0-170.174457-76.577943-170.174457-170.174457s76.577943-170.174457 170.174457-170.174457 170.174457 76.577943 170.174457 170.174457S604.810617 678.620522 511.214102 678.620522M511.214102 378.687005c-72.324068 0-129.758037 57.433969-129.758037 129.758037 0 72.324068 57.433969 129.758037 129.758037 129.758037s129.758037-57.433969 129.758037-129.758037C640.971116 436.120974 583.53817 378.687005 511.214102 378.687005" p-id="3959"></path></svg>