<?xml version="1.0" standalone="no"?><!DOCTYPE svg PUBLIC "-//W3C//DTD SVG 1.1//EN" "http://www.w3.org/Graphics/SVG/1.1/DTD/svg11.dtd"><svg t="1498742073031" class="icon" style="" viewBox="0 0 1024 1024" version="1.1" xmlns="http://www.w3.org/2000/svg" p-id="6298" xmlns:xlink="http://www.w3.org/1999/xlink" width="64" height="64"><defs><style type="text/css"></style></defs><path d="M887.167 623.424v237.567c0 24.091-19.522 43.624-43.613 43.624h-663.084c-24.091 0-43.636-19.533-43.636-43.624v-237.567c0-24.091 19.533-43.624 43.624-43.624s43.624 19.533 43.624 43.624v193.943h575.837v-193.943c0-24.091 19.533-43.624 43.624-43.624s43.624 19.533 43.624 43.624zM369.131 371.215l99.246-101.328v377.735c0 24.092 19.533 43.624 43.624 43.624s43.624-19.532 43.624-43.624v-377.73l99.241 101.319c8.544 8.725 19.856 13.099 31.176 13.099 11.007 0 22.035-4.145 30.521-12.457 17.212-16.862 17.502-44.481 0.645-61.691l-174.023-177.678c-8.205-8.38-19.439-13.1-31.167-13.1-11.723 0-22.957 4.719-31.163 13.096l-174.039 177.678c-16.862 17.216-16.581 44.834 0.635 61.691 17.211 16.862 44.829 16.572 61.682-0.634z" fill="#2c2c2c" p-id="6299"></path></svg>