<?xml version="1.0" standalone="no"?><!DOCTYPE svg PUBLIC "-//W3C//DTD SVG 1.1//EN" "http://www.w3.org/Graphics/SVG/1.1/DTD/svg11.dtd"><svg t="1498440412549" class="icon" style="" viewBox="0 0 1024 1024" version="1.1" xmlns="http://www.w3.org/2000/svg" p-id="3717" xmlns:xlink="http://www.w3.org/1999/xlink" width="200" height="200"><defs><style type="text/css"></style></defs><path d="M684.2624 336.64c10.257408 0 20.405248 0.75264 30.472192 1.872896-27.379712-127.486976-163.684352-222.208-319.26784-222.208-173.940736 0-316.424192 118.557696-316.424192 269.104128 0 86.898688 47.403008 158.2592 126.6176 213.607424l-31.647744 95.184896 110.615552-55.468032c39.581696 7.8336 71.337984 15.889408 110.83776 15.889408 9.929728 0 19.775488-0.49152 29.539328-1.258496-6.181888-21.154816-9.76384-43.312128-9.76384-66.301952 0.001024-138.236928 118.714368-250.423296 269.021184-250.423296z m-170.1376-85.79072c23.826432 0 39.609344 15.673344 39.609344 39.484416 0 23.71584-15.782912 39.607296-39.60832 39.607296-23.71584 0-47.5136-15.89248-47.5136-39.60832 0-23.810048 23.79776-39.483392 47.5136-39.483392z m-221.453312 79.090688c-23.712768 0-47.647744-15.89248-47.647744-39.60832 0-23.810048 23.933952-39.483392 47.647744-39.483392 23.71584 0 39.499776 15.673344 39.499776 39.484416 0 23.71584-15.78496 39.606272-39.499776 39.606272zM973.060096 583.26016c0-126.50496-126.594048-229.62176-268.7744-229.62176-150.552576 0-269.12768 103.1168-269.12768 229.62176 0 126.722048 118.576128 229.620736 269.12768 229.620736 31.511552 0 63.294464-7.94624 94.942208-15.878144l86.792192 47.525888-23.79776-79.07328c63.514624-47.649792 110.83776-110.834688 110.83776-182.1952z m-356.032512-39.59296c-15.755264 0-31.648768-15.674368-31.648768-31.661056 0-15.766528 15.89248-31.643648 31.648768-31.643648 23.933952 0 39.60832 15.878144 39.60832 31.643648 0 15.986688-15.674368 31.661056-39.60832 31.661056z m174.04928 0c-15.64672 0-31.429632-15.674368-31.429632-31.661056 0-15.766528 15.782912-31.643648 31.430656-31.643648 23.714816 0 39.605248 15.878144 39.605248 31.643648 0.001024 15.986688-15.889408 31.661056-39.605248 31.661056z" fill="#1AFA29" p-id="3718"></path></svg>