<?xml version="1.0" standalone="no"?><!DOCTYPE svg PUBLIC "-//W3C//DTD SVG 1.1//EN" "http://www.w3.org/Graphics/SVG/1.1/DTD/svg11.dtd"><svg t="1497975974293" class="icon" style="" viewBox="0 0 1024 1024" version="1.1" xmlns="http://www.w3.org/2000/svg" p-id="23102" xmlns:xlink="http://www.w3.org/1999/xlink" width="64" height="64"><defs><style type="text/css"></style></defs><path d="M809.573349 135.38955c-5.188162 0.358157-10.337439 1.251503-15.526625 1.62501-15.96767 1.137916-19.401886-6.386454-18.058284-21.60711 3.967358-45.190225-1.016143-50.698682-47.547923-51.141774-72.878844-0.701988-145.763828-0.190335-218.642672-0.204661-74.182536-0.023536-148.366096-0.435928-222.541469 0.174985-30.280654 0.243547-52.514027 10.772344-42.808992 47.310515 6.804986 25.613354-4.63967 30.885428-26.26827 26.352181-19.448958-4.073782-38.629809-4.454452-57.993832 0.388856-76.135004 19.044752-113.658619 98.03478-87.007633 184.705746 27.374464 89.023546 82.376149 152.593374 172.566264 181.76988 29.5275 9.55154 51.386344 23.300682 67.170842 53.017494 24.14798 45.49517 61.503772 80.744999 111.461581 98.857519 64.738443 23.467481 64.913429 23.001877 64.35675 89.487104-0.450255 54.064336-2.937912 56.642045-57.169047 59.07649-67.217914 3.006474-109.87341 31.724539-130.000819 87.512123-16.649192 46.12041-3.051499 67.697845 45.548382 68.110237 98.903567 0.839111 197.814298 0.433882 296.725028 0.228197 16.861016-0.037862 33.898041-0.433882 50.529837-2.852978 29.413913-4.279467 39.187511-21.966291 31.55774-50.470485-14.0766-52.622498-58.947554-92.914156-112.86658-100.718913-76.624145-11.092639-74.990948-11.184737-79.438237-89.36533-1.855254-32.571836 8.948813-48.357358 39.98569-54.636365 55.872518-11.30651 98.705046-45.433772 124.508735-93.051279 20.797675-38.399565 49.279357-54.803163 87.618547-68.682265 96.553033-34.935674 150.884452-108.912525 168.791288-207.655434C972.267778 195.763592 908.423705 128.545678 809.573349 135.38955zM243.11197 455.169667C166.485779 426.414763 114.178459 351.171058 113.452935 268.672112c-0.442068-50.287313 32.5483-90.533946 75.197656-91.723028 41.74987-1.174756 77.783551 34.95921 82.017992 82.925664 4.906753 55.597249 10.628058 111.162776 13.465686 166.875658C286.035572 463.98238 277.986245 468.254683 243.11197 455.169667zM595.279728 852.384387c22.606881 0.258896 43.686988 7.439436 60.427254 23.560602 7.333012 7.065929 16.633842 14.725376 13.07683 26.483164-3.745301 12.389168-15.906272 12.375865-26.069749 12.474103-44.213991 0.426719-88.443331 0.183172-132.665509 0.183172 0-0.091074 0-0.183172 0-0.275269-42.923602 0-85.848227 0.213871-128.764666-0.151449-10.223852-0.083911-22.209838 0.076748-26.405393-12.054547-4.089132-11.840676 4.996804-19.378349 12.512988-26.467815 15.715937-14.8318 34.432207-23.537066 56.206116-23.674189C480.81986 852.094792 538.057469 851.727425 595.279728 852.384387zM719.29216 163.840532c-16.593933 90.899266-27.992541 182.065616-27.238364 274.895861 0.809435 99.909477-71.550593 180.669826-162.633031 186.772824-106.059548 7.103792-191.258998-57.314357-199.979614-164.358325-8.653077-106.189508-12.078083-212.712613-30.861892-317.91156-5.112438-28.617781 13.633508-32.540114 35.377742-32.5483 58.518788-0.021489 117.039623-0.008186 175.558411-0.008186 0-0.045025 0-0.082888 0-0.121773 55.917544 0 111.850437-0.648776 167.759795 0.206708C719.605292 111.416556 727.050868 121.328299 719.29216 163.840532zM909.019269 280.222169c-9.323343 77.341482-50.692542 132.221394-117.039623 169.500439-41.535999 23.332405-52.552913 16.45681-52.773947-30.289863-0.053212-11.703553-0.008186-23.415292-0.008186-35.117822-0.534166-0.054235-1.061169-0.100284-1.595334-0.145309 3.898797-42.710754 6.271844-85.635379 12.094456-128.087237 6.918573-50.462299 48.523133-84.505649 90.654696-77.333296C887.875716 186.836269 915.25939 228.494041 909.019269 280.222169z" p-id="23103" fill="#e39687"></path></svg>