<?xml version="1.0" standalone="no"?><!DOCTYPE svg PUBLIC "-//W3C//DTD SVG 1.1//EN" "http://www.w3.org/Graphics/SVG/1.1/DTD/svg11.dtd"><svg t="1497975904438" class="icon" style="" viewBox="0 0 1024 1024" version="1.1" xmlns="http://www.w3.org/2000/svg" p-id="22381" xmlns:xlink="http://www.w3.org/1999/xlink" width="64" height="64"><defs><style type="text/css"></style></defs><path d="M493.75104 11.45984c-203.97824 0-369.3376 165.35936-369.3376 369.3376s165.35936 369.3376 369.3376 369.3376c203.97568 0 369.3376-165.35936 369.3376-369.3376S697.72672 11.45984 493.75104 11.45984zM493.75104 700.8896c-176.78208 0-320.09216-143.31008-320.09216-320.09216S316.96896 60.70528 493.75104 60.70528c176.77952 0 320.09216 143.31008 320.09216 320.09216S670.53056 700.8896 493.75104 700.8896z" p-id="22382" fill="#e39687"></path><path d="M493.75104 109.94944c-149.5872 0-270.848 121.2608-270.848 270.848s121.2608 270.848 270.848 270.848c149.58464 0 270.848-121.2608 270.848-270.848S643.33568 109.94944 493.75104 109.94944zM493.75104 602.4c-122.39104 0-221.60256-99.21152-221.60256-221.60256s99.21152-221.60256 221.60256-221.60256S715.3536 258.4064 715.3536 380.79744 616.14208 602.4 493.75104 602.4z" p-id="22383" fill="#e39687"></path><path d="M723.50336 627.0464l93.95712 182.08384c-38.15936-14.90688-82.2336-14.10176-121.50016 6.15552-39.26784 20.27136-65.46432 55.72608-75.4304 95.46112l-93.95712-182.0736-32.82176 16.9408 138.6688 268.70784 3.29472 6.39744 32.82176-16.9408-3.29472-6.39744c-28.06272-54.37824-6.73152-121.21216 47.64672-149.2736 54.38848-28.06016 121.21216-6.72 149.28384 47.65952l3.29472 6.38464 32.82176-16.928-3.30496-6.39744L756.3264 610.1184 723.50336 627.0464z" p-id="22384" fill="#e39687"></path><path d="M248.544 656.99328l-78.50368 152.13568c38.15936-14.90688 82.2336-14.10176 121.50272 6.15552 39.26528 20.27136 65.46176 55.72608 75.42912 95.46112l84.13952-163.04768 40.31232 2.42816L355.07968 1014.32192l-3.29472 6.39744-32.82176-16.9408 3.29472-6.39744c28.06272-54.37824 6.73152-121.21216-47.64416-149.2736-54.39104-28.06016-121.21344-6.72-149.2864 47.65952l-3.29472 6.38464-32.82176-16.928 3.30496-6.39744 128.4864-248.99456L248.544 656.99328z" p-id="22385" fill="#e39687"></path></svg>