<?xml version="1.0" standalone="no"?><!DOCTYPE svg PUBLIC "-//W3C//DTD SVG 1.1//EN" "http://www.w3.org/Graphics/SVG/1.1/DTD/svg11.dtd"><svg class="icon" width="64px" height="64.00px" viewBox="0 0 1024 1024" version="1.1" xmlns="http://www.w3.org/2000/svg"><path fill="#8a8a8a" d="M594.944 185.344c0-44.032-37.376-79.36-82.944-79.36-45.568 0-82.944 35.84-82.944 79.36 0 4.608 0.512 8.704 1.024 13.312-114.688 38.4-208.384 155.648-208.384 294.912v109.568s0 157.696-40.448 158.72c-24.064 0-42.496 17.92-42.496 39.936s18.432 39.936 41.472 39.936h663.552c23.04 0 41.472-17.92 41.472-39.936s-18.432-39.936-41.472-39.936c-41.472 0-41.472-157.696-41.472-157.696v-110.592c0-139.264-88.064-256.512-208.384-294.912 0.512-4.608 1.024-8.704 1.024-13.312z m41.472 695.296c0 66.048-55.296 119.296-124.416 119.296-68.608 0-124.416-53.248-124.416-119.296h248.832z"  /></svg>