<?xml version="1.0" standalone="no"?><!DOCTYPE svg PUBLIC "-//W3C//DTD SVG 1.1//EN" "http://www.w3.org/Graphics/SVG/1.1/DTD/svg11.dtd"><svg t="1497976632983" class="icon" style="" viewBox="0 0 1024 1024" version="1.1" xmlns="http://www.w3.org/2000/svg" p-id="31687" xmlns:xlink="http://www.w3.org/1999/xlink" width="64" height="64"><defs><style type="text/css"></style></defs><path d="M0 64.187477C0 28.737712 28.024406 0 64.187477 0L383.812523 0C419.262287 0 448 28.024406 448 64.187477L448 383.812523C448 419.262287 419.975594 448 383.812523 448L64.187477 448C28.737712 448 0 419.975594 0 383.812523L0 64.187477ZM0 640.187475C0 604.737713 28.024406 576 64.187477 576L383.812523 576C419.262287 576 448 604.024406 448 640.187475L448 959.812525C448 995.262285 419.975594 1024 383.812523 1024L64.187477 1024C28.737712 1024 0 995.97559 0 959.812525L0 640.187475ZM576 64.187477C576 28.737712 604.024406 0 640.187475 0L959.812525 0C995.262285 0 1024 28.024406 1024 64.187477L1024 383.812523C1024 419.262287 995.97559 448 959.812525 448L640.187475 448C604.737713 448 576 419.975594 576 383.812523L576 64.187477ZM576 640.187475C576 604.737713 604.024406 576 640.187475 576L959.812525 576C995.262285 576 1024 604.024406 1024 640.187475L1024 959.812525C1024 995.262285 995.97559 1024 959.812525 1024L640.187475 1024C604.737713 1024 576 995.97559 576 959.812525L576 640.187475Z" p-id="31688" fill="#cdcdcd"></path></svg>