<?xml version="1.0" standalone="no"?><!DOCTYPE svg PUBLIC "-//W3C//DTD SVG 1.1//EN" "http://www.w3.org/Graphics/SVG/1.1/DTD/svg11.dtd"><svg t="1497976735662" class="icon" style="" viewBox="0 0 1024 1024" version="1.1" xmlns="http://www.w3.org/2000/svg" p-id="35525" xmlns:xlink="http://www.w3.org/1999/xlink" width="64" height="64"><defs><style type="text/css"></style></defs><path d="M520.429996 957.833021l-0.102331-0.089028c-121.031541-0.684592-234.716766-48.117904-320.385914-133.769656C113.681132 737.696322 66.172095 622.994953 66.172095 500.960573c0-100.320846 32.207539-195.017602 93.174076-273.832645 29.196972-37.777395 64.151066-70.669526 103.861486-97.79635 40.137139-27.39493 84.170005-48.266283 130.909515-62.016449 2.588965-0.769526 5.293563-1.14815 8.002254-1.14815 8.435113 0 16.394389 3.724835 21.818935 10.238179 7.228635 8.729825 8.567119 20.87647 3.40147 30.987758-27.869744 54.31607-40.84629 106.060571-40.84629 162.882718 0 202.474434 164.745135 367.219569 367.219569 367.219569 56.838519 0 108.5953-12.976546 162.885787-40.813544 4.001127-2.052752 8.465812-3.12927 12.929474-3.12927 6.591115 0 12.989849 2.309602 18.053168 6.514367 8.700149 7.215332 12.279674 18.911722 9.104355 29.804816-13.84431 46.88482-34.720779 90.919732-62.025659 130.925888-27.100218 39.695071-60.009745 74.65735-97.78714 103.863533-78.81095 60.965513-173.511799 93.168959-273.828552 93.168959l-2.614547 0L520.429996 957.833021 520.429996 957.833021z" p-id="35526" fill="#cdcdcd"></path></svg>