<?xml version="1.0" standalone="no"?><!DOCTYPE svg PUBLIC "-//W3C//DTD SVG 1.1//EN" "http://www.w3.org/Graphics/SVG/1.1/DTD/svg11.dtd"><svg t="1497976767170" class="icon" style="" viewBox="0 0 1024 1024" version="1.1" xmlns="http://www.w3.org/2000/svg" p-id="36254" xmlns:xlink="http://www.w3.org/1999/xlink" width="64" height="64"><defs><style type="text/css"></style></defs><path d="M512 78.848C272.7168 78.848 78.848 272.7168 78.848 512c0 239.3088 193.8688 433.152 433.1776 433.152 239.232 0 433.1264-193.8432 433.1264-433.152 0-239.2832-193.8944-433.152-433.152-433.152z m146.6112 579.7632c-10.5472 10.5472-24.448 15.7952-38.2976 15.7952s-27.7504-5.2992-38.2976-15.7952l-108.2368-108.2624a53.4272 53.4272 0 0 1-15.872-38.1952V295.424c0-29.9776 24.192-54.1696 54.1696-54.1696 29.9776 0 54.144 24.192 54.144 54.1696v194.176l92.4928 92.416a54.272 54.272 0 0 1-0.1024 76.5952z" fill="#B1B1B1" p-id="36255"></path></svg>