<?xml version="1.0" standalone="no"?><!DOCTYPE svg PUBLIC "-//W3C//DTD SVG 1.1//EN" "http://www.w3.org/Graphics/SVG/1.1/DTD/svg11.dtd"><svg class="icon" width="64px" height="64.00px" viewBox="0 0 1024 1024" version="1.1" xmlns="http://www.w3.org/2000/svg"><path fill="#e39687" d="M418.909091 372.363636 418.909091 698.181818 605.090909 698.181818 605.090909 372.363636 696.24367 372.363638 511.582813 151.061383 326.921959 372.363638 418.909091 372.363636ZM325.818182 791.272727 325.818182 465.454545 139.636364 465.454545 512 10.219745 884.363636 465.454545 698.181818 465.454545 698.181818 791.272727 325.818182 791.272727ZM791.549193 930.909091C842.809195 930.909091 884.363636 889.589313 884.363636 837.818182L884.363636 744.727273 977.454545 744.727273 977.454545 884.363636C977.454545 961.482668 914.929478 1024 838.088048 1024L185.911951 1024C108.94196 1024 46.545455 961.32575 46.545455 884.363636L46.545455 744.727273 139.636364 744.727273 139.636364 837.818182C139.636364 889.230871 181.271913 930.909091 232.450806 930.909091L791.549193 930.909091Z" /></svg>