<?xml version="1.0" standalone="no"?><!DOCTYPE svg PUBLIC "-//W3C//DTD SVG 1.1//EN" "http://www.w3.org/Graphics/SVG/1.1/DTD/svg11.dtd"><svg t="1497976656860" class="icon" style="" viewBox="0 0 1024 1024" version="1.1" xmlns="http://www.w3.org/2000/svg" p-id="32401" xmlns:xlink="http://www.w3.org/1999/xlink" width="64" height="64"><defs><style type="text/css"></style></defs><path d="M180.87214 120.470588C114.246249 120.470588 60.235294 174.284639 60.235294 240.452318L60.235295 904.018269C60.235295 970.282351 114.058098 1024 180.87214 1024L722.657274 1024C789.283159 1024 843.294118 970.185951 843.294118 904.018269L843.294118 240.452318C843.294118 174.188238 789.471316 120.470588 722.657274 120.470588L180.87214 120.470588ZM662.588235 421.647059 240.941176 421.647059 240.941176 361.411765 662.588235 361.411765 662.588235 421.647059ZM963.764706 722.823529 903.529412 722.823529 903.529412 180.225025C903.529412 113.956527 850.074606 60.235294 783.082014 60.235294L301.176471 60.235294 301.176471 0 782.709561 0C882.703553 0 963.764706 80.813043 963.764706 180.534334L963.764706 722.823529ZM662.588235 602.352941 240.941176 602.352941 240.941176 542.117647 662.588235 542.117647 662.588235 602.352941Z" p-id="32402" fill="#cdcdcd"></path></svg>