<?xml version="1.0" standalone="no"?><!DOCTYPE svg PUBLIC "-//W3C//DTD SVG 1.1//EN" "http://www.w3.org/Graphics/SVG/1.1/DTD/svg11.dtd"><svg t="1497976811210" class="icon" style="" viewBox="0 0 1024 1024" version="1.1" xmlns="http://www.w3.org/2000/svg" p-id="36929" xmlns:xlink="http://www.w3.org/1999/xlink" width="64" height="64"><defs><style type="text/css"></style></defs><path d="M899.505152 603.726848 600.631296 603.726848l0 298.84416c0 33.042432-26.755072 59.779072-59.767808 59.779072l-59.780096 0c-33.006592 0-59.767808-26.73664-59.767808-59.779072l0-298.84416L122.442752 603.726848c-33.006592 0-59.767808-26.77248-59.767808-59.780096l0-59.814912c0-33.001472 26.760192-59.738112 59.767808-59.738112l298.873856 0L421.316608 125.531136c0-33.001472 26.760192-59.797504 59.767808-59.797504l59.780096 0c33.012736 0 59.767808 26.796032 59.767808 59.797504l0 298.861568L899.505152 424.392704c33.006592 0 59.767808 26.73664 59.767808 59.738112l0 59.814912C959.27296 576.953344 932.512768 603.726848 899.505152 603.726848z" p-id="36930" fill="#49be38"></path></svg>