<?xml version="1.0" standalone="no"?><!DOCTYPE svg PUBLIC "-//W3C//DTD SVG 1.1//EN" "http://www.w3.org/Graphics/SVG/1.1/DTD/svg11.dtd"><svg class="icon" width="64px" height="64.00px" viewBox="0 0 1024 1024" version="1.1" xmlns="http://www.w3.org/2000/svg"><path fill="#8a8a8a" d="M695.76704 464.81408h-40.96v-166.912a113.152 113.152 0 0 0-113.02912-113.02912H392.3968a113.152 113.152 0 0 0-113.02912 113.02912v162.14016h-40.96v-162.14016c0-84.91008 69.07904-153.98912 153.98912-153.98912h149.38112c84.91008 0 153.98912 69.07904 153.98912 153.98912v166.912z"  /><path fill="#8a8a8a" d="M227.59424 793.88672c-48.45568 0-85.11488-17.08032-103.6288-48.4352-19.23072-32.58368-15.48288-74.91584 10.58816-119.17312l103.99744-176.61952a20.48 20.48 0 1 1 35.28704 20.7872l-103.99744 176.64c-17.89952 30.37184-21.77024 58.65472-10.60864 77.55776 11.1616 18.92352 37.7856 29.24544 73.05216 28.22144l468.43904-12.9024c35.26656-0.98304 61.3376-12.75904 71.49568-32.31744s4.83328-47.65696-14.62272-77.08672l-102.13376-154.43968a20.48 20.48 0 1 1 34.16064-22.60992l102.13376 154.43968c28.32384 42.84416 34.28352 84.93056 16.7936 118.5792s-55.37792 52.9408-106.72128 54.3744l-468.43904 12.9024c-1.92512 0.04096-3.87072 0.08192-5.79584 0.08192zM530.65728 167.44448a20.48 20.48 0 0 1-20.48-20.48 43.15136 43.15136 0 0 0-43.1104-43.1104c-23.7568 0-43.08992 19.33312-43.08992 43.1104a20.48 20.48 0 0 1-40.96 0 84.15232 84.15232 0 0 1 84.04992-84.0704 84.15232 84.15232 0 0 1 84.0704 84.0704 20.48 20.48 0 0 1-20.48 20.48z"  /><path fill="#8a8a8a" d="M467.27168 926.06464c-87.77728 0-161.15712-67.15392-170.65984-156.20096a20.48 20.48 0 1 1 40.73472-4.36224c7.29088 68.17792 63.13984 119.6032 129.9456 119.6032 65.20832 0 120.9344-50.05312 129.59744-116.4288a20.31616 20.31616 0 0 1 22.9376-17.65376 20.43904 20.43904 0 0 1 17.65376 22.9376c-11.32544 86.71232-84.48 152.10496-170.20928 152.10496z"  /></svg>