<?xml version="1.0" standalone="no"?><!DOCTYPE svg PUBLIC "-//W3C//DTD SVG 1.1//EN" "http://www.w3.org/Graphics/SVG/1.1/DTD/svg11.dtd"><svg t="1497976541306" class="icon" style="" viewBox="0 0 1024 1024" version="1.1" xmlns="http://www.w3.org/2000/svg" p-id="29128" xmlns:xlink="http://www.w3.org/1999/xlink" width="64" height="64"><defs><style type="text/css"></style></defs><path d="M949.988 432.402c-4.732-45.853-45.622-81.894-95.85-83.182l-52.5 0.028-0.301-89.477c0-8.004-2.197-15.529-6.058-22.086-25.2-128.453-146.171-225.831-291.604-225.831-161.684 0-293.096 120.309-296.375 269.874a43.172 43.172 0 0 0-0.546 6.833l0.075 17.918h0.393v43.184h-49.549c-54.726 0-99.097 41.25-99.097 92.126v48.941h-0.409l0.304 332.035h0.105v48.927c0 49.598 42.146 90.031 94.947 92.055l707.764-0.373c49.015-4.537 87.517-42.283 89.106-88.698l-0.405-442.274z m-99.088 8.946l0.025 27.872-0.195-27.872h0.17zM306.335 288.244c0.661-101.062 88.992-182.811 197.872-182.811s197.211 81.749 197.873 182.811h0.257l0.205 61.056-396.434 0.209-0.256-60.95c0-0.106-0.008-0.21-0.008-0.315h0.491zM157.22 441.714h0.582l-0.516 71.905-0.066-71.905z m78.459 429.862c-60.216-2.941-77.084-21.239-77.994-87.218l0.635 87.047 30.543 0.195-31.248 0.017-0.318-347.285c2.032-67.965 23.553-80.491 98.927-80.491l-93.21-2.13 88.127-0.046c1.844 0.193 3.716 0.302 5.615 0.302 1.917 0 3.805-0.111 5.666-0.309l556.457-0.293-66.588 1.532c73.037 0 95.509 11.75 98.681 74.313l0.249 272.369c-1.866 62.967-20.371 79.555-82.613 81.717l-532.929 0.28z m559.583-0.296l55.464-0.354 0.503-70.701 0.064 71.026-56.031 0.029z m-637.577-86.922l-0.043-5.903c0 2.013 0.016 3.973 0.043 5.903z m345.797-219.873c-36.484 0-66.065 27.5-66.065 61.417v61.417c0 33.918 29.581 61.417 66.065 61.417s66.065-27.499 66.065-61.417v-61.417c0-33.917-29.581-61.417-66.065-61.417z" p-id="29129" fill="#cdcdcd"></path></svg>