<?xml version="1.0" standalone="no"?><!DOCTYPE svg PUBLIC "-//W3C//DTD SVG 1.1//EN" "http://www.w3.org/Graphics/SVG/1.1/DTD/svg11.dtd"><svg class="icon" width="64px" height="64.00px" viewBox="0 0 1024 1024" version="1.1" xmlns="http://www.w3.org/2000/svg"><path fill="#e39687" d="M791.914666 789.323143 456.886263 789.323143 345.146343 956.932512 233.407446 789.323143l0 0c-92.510974 0-167.609369-75.191516-167.609369-167.606299L65.798077 230.628658c0-92.416829 75.098395-167.609369 167.609369-167.609369l558.50722 0c92.606141 0 167.610392 75.192539 167.610392 167.609369l0 391.088186C959.525058 714.130603 884.520807 789.323143 791.914666 789.323143zM847.785138 230.628658c0-30.806633-24.874527-55.870472-55.870472-55.870472L233.407446 174.758186c-30.803563 0-55.869449 25.063839-55.869449 55.870472l0 391.088186c0 30.804586 25.066909 55.869449 55.869449 55.869449L270.719236 677.586292l74.427106 111.73685 74.4312-111.73685 372.337123 0c30.995945 0 55.870472-25.064862 55.870472-55.869449L847.785138 230.628658z" /></svg>