<?xml version="1.0" standalone="no"?><!DOCTYPE svg PUBLIC "-//W3C//DTD SVG 1.1//EN" "http://www.w3.org/Graphics/SVG/1.1/DTD/svg11.dtd"><svg class="icon" width="64px" height="64.00px" viewBox="0 0 1024 1024" version="1.1" xmlns="http://www.w3.org/2000/svg"><path fill="#e39687" d="M511.044744 63.448054c-247.255337 0-447.695438 200.440102-447.695438 447.696462s200.440102 447.695438 447.695438 447.695438S958.740182 758.399853 958.740182 511.144516 758.300081 63.448054 511.044744 63.448054zM804.459377 804.559149c-38.119179 38.118156-82.498946 68.042699-131.906216 88.940658-51.136657 21.6286-105.47524 32.595372-161.507394 32.595372-56.032154 0-110.370737-10.966773-161.507394-32.595372-49.408293-20.897959-93.78806-50.822502-131.906216-88.940658-38.119179-38.119179-68.042699-82.498946-88.940658-131.907239-21.6286-51.135634-32.595372-105.474216-32.595372-161.507394 0-56.032154 10.966773-110.370737 32.595372-161.507394 20.897959-49.408293 50.821479-93.78806 88.940658-131.906216 38.118156-38.119179 82.498946-68.042699 131.906216-88.940658C400.674007 107.160625 455.012589 96.193853 511.044744 96.193853c56.032154 0 110.370737 10.966773 161.507394 32.595372 49.40727 20.897959 93.787036 50.821479 131.906216 88.940658 38.118156 38.118156 68.042699 82.498946 88.940658 131.906216 21.6286 51.136657 32.594349 105.47524 32.594349 161.507394 0 56.032154-10.966773 110.37176-32.594349 161.507394C872.502076 722.060203 842.577532 766.43997 804.459377 804.559149zM724.438878 675.714665 724.438878 522.56973 314.569954 522.56973 314.569954 675.714665 355.779517 675.714665 355.779517 558.768163 683.229315 558.768163 683.229315 675.714665ZM307.886741 331.00067l424.347684 0 0 72.952522 40.096207 0L772.330632 295.916617 636.450918 295.916617c26.173103-17.446347 51.232848-36.010145 75.18026-55.688323l-31.18628-27.844162c-21.161972 18.564821-46.221718 37.311791-75.18026 56.246025l25.616424 27.287483-90.215698 0 0-83.533508-42.322921 0 0 83.533508L408.405085 295.91764l27.565822-25.059745c-21.905916-19.303648-45.852304-38.60832-71.838142-57.916061l-29.515221 26.174126c22.458501 18.376533 43.897789 37.310767 64.319911 56.802704l-131.146922 0 0 107.479897 40.096207 0L307.886741 331.00067zM500.013503 572.690244c0 34.527374-7.79657 60.331064-23.38971 77.407997-30.815843 36.010145-104.137779 59.770292-219.9699 71.281463 3.711532 7.05365 9.466606 21.161972 17.264199 42.323944C397.916197 746.997152 475.693608 719.521381 507.252371 681.283498c23.388686-26.730805 35.084053-62.928215 35.084053-108.593254L500.013503 572.690244zM532.868795 684.068937c69.793576 21.531386 143.120628 47.518247 219.970924 77.963653l22.276353-41.766242c-59.774385-20.791535-134.396943-44.364417-223.86972-70.724785L532.868795 684.068937zM683.785993 496.396627 683.785993 367.755782l-328.563154 0 0 128.640846 40.096207 0 0-13.922081 248.371764 0 0 13.922081L683.785993 496.396627zM395.318022 448.50385l0-46.778396 248.371764 0 0 46.778396L395.318022 448.50385z" /></svg>