<?xml version="1.0" standalone="no"?><!DOCTYPE svg PUBLIC "-//W3C//DTD SVG 1.1//EN" "http://www.w3.org/Graphics/SVG/1.1/DTD/svg11.dtd"><svg t="1498996756499" class="icon" style="" viewBox="0 0 1024 1024" version="1.1" xmlns="http://www.w3.org/2000/svg" p-id="10343" xmlns:xlink="http://www.w3.org/1999/xlink" width="64" height="64"><defs><style type="text/css"></style></defs><path d="M981.331378 89.006562l-46.933138-46.933137C882.51579-9.809026 777.598893-15.867667 725.759109 36.014783L495.786734 265.901825c-34.687855 34.687855-29.738543 94.634272-18.047925 138.879422l313.598694-303.060071c25.941225-25.941225 72.575698 6.869305 98.559589 32.853197 25.898559 25.941225 58.751755 72.533031 32.81053 98.516922L618.666222 545.665993c44.245149 11.647951 105.215562 17.663926 139.860751-17.023929l229.887042-229.887042c51.925117-51.839784 44.84248-157.866009-7.039971-209.74846zM233.131829 922.752422c-25.941225 25.941225-72.575698-6.911971-98.55959-32.853197-25.941225-25.941225-58.751755-72.533031-32.853196-98.516922l303.102737-313.598694c-44.245149-11.690618-104.191566-16.639931-138.879421 18.047925L36.01265 725.718576c-51.88245 51.88245-45.823809 156.799347 6.058641 208.639131l46.933138 47.018471c51.88245 51.88245 157.866009 58.965088 209.74846 7.03997l229.887042-229.887042c34.687855-34.645189 28.714547-95.615602 17.023929-139.86075l-312.574698 304.084066zM617.386228 406.530573a33.279861 33.279861 0 0 0-46.933138 0l-164.393982 164.393981a33.279861 33.279861 0 0 0 46.933138 46.975805l164.393982-164.351315a33.279861 33.279861 0 0 0 0-47.018471z" p-id="10344" fill="#555555"></path></svg>